<svg xmlns="http://www.w3.org/2000/svg" viewBox="0 0 468 194.34"><defs><style>.cls-1{fill:#3b1c1f;}.cls-2{fill:#5a2b2f;}</style></defs><title>logo--seattle-pacific-torch</title><g id="Logo_Artwork" data-name="Logo Artwork"><path class="cls-1" d="M415.33,113.37h11.1v80.32h-11.1Zm-53.41,80.32H373V113.37h-11.1ZM102.16,116.94H111v76.75h11.1V116.94h15.25v76.75h11.1V116.94h8.86v-3.57H102.16Zm282.37,76.75h10.93v-39.2h12.06v-3H395.46V116.75h12.42v-3.38H384.53ZM25.27,153.53c-3.54-3-9.61-8.06-11.38-9.5A6.64,6.64,0,0,1,11,138.42V121.54c0-4.23,1.93-6,4.4-6s4.39,1.65,4.39,6v13.9a4.44,4.44,0,0,0,4.45,4.44h5.79V123c0-8.56-4.34-10.31-14.85-10.31S0,114.52,0,123V140.7c0,5.51,3,8.27,6.05,10.87s7.38,6.16,9.21,7.65,4.46,3.28,4.46,7.79V185.1c0,4.49-1.74,6.32-4.63,6.32s-4.63-1.86-4.63-6.32V169.51A4.45,4.45,0,0,0,6,165.05H0v19.36c0,8.52,6.1,9.93,15.26,9.93,7.45,0,15.26-1.41,15.26-10V165.84C30.52,159,29.13,156.77,25.27,153.53Zm15.57,40.16H64.19v-3.38H51.76V154.49H63.82v-3H51.76V116.75H64.19v-3.38H40.84Zm134.85-80.32h-11.1v80.32h22v-3.24h-10.9Zm15.86,80.32H214.9v-3.38H202.47V154.49h12.06v-3H202.47V116.75H214.9v-3.38H191.55ZM86.16,113.37H77.58l-8.33,80.32h4.31l1.8-17.53H83l-.3-3.5h-7l5.6-54.44h.24l6.54,75.47H99.57L92.3,118.94A6.17,6.17,0,0,0,86.16,113.37Zm164.6,0h25v37.4a9.53,9.53,0,0,1-9.53,9.52H256.05v33.4H245.21V118.92A5.58,5.58,0,0,1,250.76,113.37Zm5.29,43.37h4.48a4.4,4.4,0,0,0,4.39-4.39V116.84h-8.87Zm42.06-43.37h-8.58l-8.33,80.32h4.31l1.8-17.53H295l-.3-3.5h-7l5.6-54.44h.23l6.55,75.47h11.47l-7.28-74.75A6.16,6.16,0,0,0,298.11,113.37Zm37.75-.65c-10.56,0-15.46,1.18-15.46,12.24v57.13c0,11.07,5,12.25,15.46,12.25s15.47-1.18,15.47-12.25V161h-6.15a4.25,4.25,0,0,0-4.26,4.25v18.2c0,5.91-.86,8.11-4.63,8.11s-4.65-2.19-4.65-8.11V123.62c0-6.5.87-8.12,4.65-8.12s4.63,1.62,4.63,8.11c0,3.82,0,11.07,0,15.36a4.42,4.42,0,0,0,4.43,4.42h6V125C351.33,113.9,346.42,112.72,335.86,112.72ZM462,143.39h6V125c0-11.06-4.9-12.24-15.47-12.24S437.07,113.9,437.07,125v57.13c0,11.07,5,12.25,15.46,12.25S468,193.16,468,182.09V161h-6.15a4.26,4.26,0,0,0-4.26,4.25v18.2c0,5.91-.86,8.11-4.63,8.11s-4.65-2.19-4.65-8.11V123.62c0-6.5.88-8.12,4.65-8.12s4.63,1.62,4.63,8.11c0,3.82,0,11.07,0,15.36A4.42,4.42,0,0,0,462,143.39Z"/></g><g id="Layer_2" data-name="Layer 2"><path class="cls-2" d="M151,46.13a24.23,24.23,0,0,1,14.3-4.8H177.4a.3.3,0,0,1,.18.55L133.64,74.74a.31.31,0,0,1-.5-.25v-15Zm54.16-4.8h-14a18.33,18.33,0,0,0-10.75,3.56L129.75,82.68V38.19a4.07,4.07,0,0,1,1.62-3.25l12.31-9.33v2.28a5.79,5.79,0,0,1-2.29,4.61l-8,6.1a.51.51,0,0,0-.2.41V53.52a.31.31,0,0,0,.5.25l17-12.68a16.78,16.78,0,0,0,6.74-13.46V.32a.32.32,0,0,0-.5-.26L120.24,27.42a11.15,11.15,0,0,0-4.47,8.93V51.57h0L113,49.51l-9.09-6.79a4.88,4.88,0,0,1-1.85-3.8V36.2l10,7.43a.31.31,0,0,0,.49-.24V33.25a9.81,9.81,0,0,0-3.94-7.86L88.68,10.51a.31.31,0,0,0-.5.25V35.17h0v6.36a10,10,0,0,0,4,8l23.56,17.61v5L88.7,52a.33.33,0,0,0-.52.26v8.72a12.49,12.49,0,0,0,5,10l36.55,27.34,75.57-56.41A.3.3,0,0,0,205.14,41.33Z"/></g></svg>